<svg width="25" height="25" viewBox="0 0 25 25" fill="none" xmlns="http://www.w3.org/2000/svg">
<g clip-path="url(#clip0)">
<path d="M0 9.68197C0 9.33805 0.278801 9.05925 0.622719 9.05925H21.2347V6.51091H19.2776V7.67361C19.2776 8.01753 18.9988 8.29633 18.6549 8.29633C18.3109 8.29633 18.0321 8.01753 18.0321 7.67361V5.88819C18.0321 5.54427 18.3109 5.26547 18.6549 5.26547H21.8574C22.2013 5.26547 22.4801 5.54427 22.4801 5.88819V9.05925H24.3773C24.7212 9.05925 25 9.33805 25 9.68197C25 13.5916 22.6501 16.9622 19.2889 18.457L19.4806 18.5371C19.7979 18.6698 19.9476 19.0345 19.815 19.3518C19.7151 19.5907 19.4838 19.7345 19.2402 19.7345C19.1601 19.7345 19.0788 19.7189 19.0003 19.6862L17.4835 19.0521C16.8129 19.201 16.1165 19.2802 15.4017 19.2802H9.59822C8.75133 19.2802 7.92996 19.1694 7.1472 18.9625L5.41614 19.6862C5.33767 19.719 5.25628 19.7345 5.17621 19.7345C4.93264 19.7345 4.70126 19.5906 4.60144 19.3518C4.46881 19.0345 4.61852 18.6698 4.93584 18.5371L5.43393 18.3289C2.22124 16.7754 0 13.4832 0 9.68197ZM9.59822 18.0348H15.4017C19.798 18.0348 23.412 14.6207 23.7315 10.3046H1.2683C1.58793 14.6208 5.20192 18.0348 9.59822 18.0348Z" fill="#828282"/>
</g>
<defs>
<clipPath id="clip0">
<rect width="25" height="25" fill="white" transform="matrix(-1 0 0 1 25 0)"/>
</clipPath>
</defs>
</svg>
