<svg width="20" height="15" viewBox="0 0 20 15" fill="none" xmlns="http://www.w3.org/2000/svg">
<path fill-rule="evenodd" clip-rule="evenodd" d="M0.545457 -2.62268e-08C0.846704 -1.17422e-08 1.09091 0.268629 1.09091 0.6L1.09091 14.4C1.09091 14.7314 0.846703 15 0.545457 15C0.24421 15 2.1846e-06 14.7314 2.19777e-06 14.4L2.74615e-06 0.6C2.75932e-06 0.268629 0.244211 -4.07115e-08 0.545457 -2.62268e-08Z" fill="#828282"/>
<path fill-rule="evenodd" clip-rule="evenodd" d="M19.4545 7C19.7558 7 20 7.26863 20 7.6L20 14.4C20 14.7314 19.7558 15 19.4545 15C19.1533 15 18.9091 14.7314 18.9091 14.4L18.9091 7.6C18.9091 7.26863 19.1533 7 19.4545 7Z" fill="#828282"/>
<path fill-rule="evenodd" clip-rule="evenodd" d="M20 7.59995C20 7.93132 19.7558 8.19995 19.4545 8.19995L0.545454 8.19995C0.244208 8.19995 -5.96046e-07 7.93132 -5.96046e-07 7.59995C-5.96046e-07 7.26858 0.244208 6.99995 0.545454 6.99995L19.4545 6.99995C19.7558 6.99995 20 7.26858 20 7.59995Z" fill="#828282"/>
<path fill-rule="evenodd" clip-rule="evenodd" d="M20 10.6C20 10.9313 19.7558 11.2 19.4545 11.2L0.545454 11.2C0.244208 11.2 -5.96046e-07 10.9313 -5.96046e-07 10.6C-5.96046e-07 10.2686 0.244208 9.99995 0.545454 9.99995L19.4545 9.99995C19.7558 9.99995 20 10.2686 20 10.6Z" fill="#828282"/>
<path fill-rule="evenodd" clip-rule="evenodd" d="M6.89999 4.2H16.9C17.3418 4.2 17.7 4.55817 17.7 5V7H18.9V5C18.9 3.89543 18.0046 3 16.9 3H6.89999C5.79542 3 4.89999 3.89543 4.89999 5V7H6.09999V5C6.09999 4.55817 6.45817 4.2 6.89999 4.2Z" fill="#828282"/>
<circle cx="3" cy="5" r="1.5" fill="#828282"/>
</svg>
