<svg xmlns="http://www.w3.org/2000/svg" width="24" height="20" viewBox="0 0 24 20">
    <g fill="none" fill-rule="evenodd" stroke="#FFF">
        <path fill="#000" d="M22.755 3.975c-.561-.467-1.19-.692-1.946-.692H17.2l-.131-.3-.656-1.501c-.087-.227-.318-.46-.684-.658C15.385.602 15.062.5 14.705.5H9.25c-.357 0-.68.102-1.058.344-.302.163-.518.39-.658.658l-.778 1.781H3.19c-.8 0-1.422.223-1.946.692C.735 4.4.5 4.918.5 5.566v9.651c0 .595.243 1.101.745 1.59.561.468 1.19.693 1.946.693h17.618c.757 0 1.385-.225 1.946-.692.51-.424.745-.943.745-1.591V5.521c0-.633-.226-1.114-.745-1.546z" opacity=".5"/>
        <path stroke-width=".1" d="M0.05 0.05H23.95V19.95H0.05z" opacity=".01"/>
    </g>
</svg>
